<svg width="14" height="13" viewBox="0 0 14 13" fill="none" xmlns="http://www.w3.org/2000/svg">
<path d="M5.66683 2.69452C6.18381 1.30548 6.4423 0.610962 6.88681 0.610962C7.33131 0.610962 7.5898 1.30548 8.10679 2.69452L8.13086 2.75921C8.42293 3.54394 8.56897 3.93631 8.8666 4.1748C9.16422 4.41329 9.55492 4.451 10.3363 4.52642L10.4776 4.54006C11.7564 4.66349 12.3959 4.72521 12.5327 5.16366C12.6695 5.6021 12.1946 6.06772 11.2449 6.99896L10.9279 7.30976C10.4472 7.78117 10.2068 8.01687 10.0947 8.3258C10.0738 8.38342 10.0565 8.44246 10.0427 8.50254C9.96908 8.82459 10.0395 9.16652 10.1803 9.8504L10.2241 10.0633C10.4828 11.3201 10.6122 11.9485 10.3863 12.2196C10.3019 12.3208 10.1922 12.3938 10.0703 12.4296C9.74422 12.5255 9.28122 12.1189 8.3552 11.3057C7.74715 10.7717 7.44312 10.5047 7.09406 10.4446C6.95676 10.421 6.81685 10.421 6.67955 10.4446C6.33049 10.5047 6.02646 10.7717 5.41841 11.3057C4.4924 12.1189 4.02939 12.5255 3.70327 12.4296C3.58141 12.3938 3.47171 12.3208 3.3873 12.2196C3.16142 11.9485 3.29079 11.3201 3.54953 10.0633L3.59335 9.8504C3.73414 9.16652 3.80453 8.82459 3.73088 8.50254C3.71715 8.44246 3.69977 8.38342 3.67887 8.3258C3.56683 8.01687 3.32644 7.78117 2.84567 7.30976L2.5287 6.99896C1.57897 6.06772 1.1041 5.6021 1.24092 5.16366C1.37774 4.72521 2.01717 4.66349 3.29603 4.54006L3.43729 4.52642C4.21869 4.451 4.60939 4.41329 4.90702 4.1748C5.20465 3.93631 5.35068 3.54394 5.64275 2.7592L5.66683 2.69452Z" fill="#FAA300" stroke="#FAA300"/>
</svg>
